<svg width="30" height="30" viewBox="0 0 30 30" fill="none" xmlns="http://www.w3.org/2000/svg">
<path d="M10.2473 4.8668C10.2473 4.36955 9.84455 3.9668 9.3473 3.9668H5.87705C5.3798 3.9668 4.97705 4.36955 4.97705 4.8668V5.6483H10.2473V4.8668Z" fill="#8595AA"/>
<path d="M15.0001 11.574C12.3571 11.574 10.2061 13.725 10.2061 16.3687C10.2061 19.0125 12.3563 21.162 15.0001 21.162C17.6438 21.162 19.7941 19.0117 19.7941 16.3687C19.7941 13.7257 17.6438 11.574 15.0001 11.574ZM15.0001 18.768C13.6771 18.768 12.6008 17.691 12.6008 16.368C12.6008 16.0492 12.6661 15.747 12.7793 15.4687C12.5273 15.294 12.3511 15.0165 12.3511 14.6872C12.3511 14.1532 12.7853 13.7182 13.3193 13.7182C13.6486 13.7182 13.9261 13.8937 14.1008 14.1465C14.3791 14.0332 14.6821 13.968 15.0001 13.968C16.3231 13.968 17.4001 15.045 17.4001 16.368C17.4001 17.691 16.3238 18.768 15.0001 18.768Z" fill="#333D4B"/>
<path d="M25.2751 5.64819H4.7251C3.06835 5.64819 1.7251 6.99144 1.7251 8.64819V23.7494C1.7251 25.3994 3.0751 26.7494 4.7251 26.7494H25.2751C26.9318 26.7494 28.2751 25.4062 28.2751 23.7494V8.64819C28.2751 6.99144 26.9318 5.64819 25.2751 5.64819ZM15.0001 22.2862C11.7361 22.2862 9.0811 19.6312 9.0811 16.3679C9.0811 13.1047 11.7361 10.4482 15.0001 10.4482C18.2641 10.4482 20.9191 13.1039 20.9191 16.3679C20.9191 19.6319 18.2641 22.2862 15.0001 22.2862ZM22.5068 11.5049C21.6908 11.5049 21.0293 10.8434 21.0293 10.0274C21.0293 9.21144 21.6908 8.54994 22.5068 8.54994C23.3228 8.54994 23.9843 9.21144 23.9843 10.0274C23.9843 10.8434 23.3228 11.5049 22.5068 11.5049Z" fill="#4E5968"/>
<path d="M15.0001 13.9672C14.6821 13.9672 14.3791 14.0324 14.1008 14.1457C14.2096 14.3024 14.2876 14.4817 14.2876 14.6864C14.2876 15.2204 13.8533 15.6547 13.3193 15.6547C13.1146 15.6547 12.9353 15.5767 12.7786 15.4679C12.6653 15.7462 12.6001 16.0492 12.6001 16.3672C12.6001 17.6902 13.6763 18.7672 14.9993 18.7672C16.3223 18.7672 17.3993 17.6902 17.3993 16.3672C17.3993 15.0442 16.3238 13.9672 15.0001 13.9672Z" fill="#4E5968"/>
<path d="M14.2876 14.6865C14.2876 14.4818 14.2096 14.3025 14.1008 14.1458C13.9261 13.8938 13.6486 13.7175 13.3193 13.7175C12.7853 13.7175 12.3511 14.1518 12.3511 14.6865C12.3511 15.0158 12.5273 15.2933 12.7793 15.468C12.9361 15.5768 13.1153 15.6548 13.3201 15.6548C13.8541 15.6548 14.2883 15.2205 14.2883 14.6865H14.2876Z" fill="white"/>
<path d="M15.0001 10.449C11.7361 10.449 9.08105 13.1047 9.08105 16.3687C9.08105 19.6327 11.7361 22.287 15.0001 22.287C18.2641 22.287 20.9191 19.632 20.9191 16.3687C20.9191 13.1055 18.2641 10.449 15.0001 10.449ZM15.0001 21.1612C12.3571 21.1612 10.2061 19.011 10.2061 16.368C10.2061 13.725 12.3563 11.5732 15.0001 11.5732C17.6438 11.5732 19.7941 13.7242 19.7941 16.368C19.7941 19.0117 17.6438 21.1612 15.0001 21.1612Z" fill="#D0D6DE"/>
<path d="M22.5068 8.54919C21.6908 8.54919 21.0293 9.21069 21.0293 10.0267C21.0293 10.8427 21.6908 11.5042 22.5068 11.5042C23.3228 11.5042 23.9843 10.8427 23.9843 10.0267C23.9843 9.21069 23.3228 8.54919 22.5068 8.54919Z" fill="#FFE63B"/>
</svg>
