<svg width="20" height="20" viewBox="0 0 20 20" fill="none" xmlns="http://www.w3.org/2000/svg">
<g clip-path="url(#clip0_777_2196)">
<path d="M16.175 15.3834L17.577 7.85538C17.639 7.52238 17.2845 7.26738 16.9885 7.43288L14.4905 8.82938C13.793 9.21938 12.9125 8.99388 12.488 8.31688L10.339 4.89038C10.182 4.64038 9.81801 4.64038 9.66151 4.89038L7.51251 8.31688C7.08801 8.99388 6.20751 9.21888 5.51001 8.82938L3.01201 7.43288C2.71601 7.26738 2.36151 7.52188 2.42351 7.85538L3.82551 15.3834" fill="#FFCD00"/>
<path d="M15.3835 17.7585H4.61645C4.14145 17.7585 3.82495 17.442 3.82495 16.967V15.3835H16.175V16.967C16.175 17.363 15.8585 17.7585 15.3835 17.7585Z" fill="#FFAD00"/>
<path d="M10 4.70243C10.6995 4.70243 11.2665 4.1354 11.2665 3.43593C11.2665 2.73646 10.6995 2.16943 10 2.16943C9.30055 2.16943 8.73352 2.73646 8.73352 3.43593C8.73352 4.1354 9.30055 4.70243 10 4.70243Z" fill="#FFAD00"/>
<path d="M18.2335 7.783C18.933 7.783 19.5 7.21597 19.5 6.5165C19.5 5.81703 18.933 5.25 18.2335 5.25C17.5341 5.25 16.967 5.81703 16.967 6.5165C16.967 7.21597 17.5341 7.783 18.2335 7.783Z" fill="#FFAD00"/>
<path d="M1.7665 7.783C2.46597 7.783 3.033 7.21597 3.033 6.5165C3.033 5.81703 2.46597 5.25 1.7665 5.25C1.06703 5.25 0.5 5.81703 0.5 6.5165C0.5 7.21597 1.06703 7.783 1.7665 7.783Z" fill="#FFAD00"/>
</g>
<defs>
<clipPath id="clip0_777_2196">
<rect width="20" height="20" fill="white"/>
</clipPath>
</defs>
</svg>
