<svg width="310" height="52" viewBox="0 0 310 52" fill="none" xmlns="http://www.w3.org/2000/svg">
<rect width="310" height="52" rx="12" fill="#FEE500"/>
<path fill-rule="evenodd" clip-rule="evenodd" d="M98.0001 16.2C92.4769 16.2 88 19.8318 88 24.311C88 27.0967 89.7316 29.5525 92.3684 31.0131L91.2589 35.2686C91.1609 35.6446 91.5705 35.9443 91.885 35.7264L96.7482 32.3562C97.1586 32.3978 97.5757 32.4221 98.0001 32.4221C103.523 32.4221 108 28.7905 108 24.311C108 19.8318 103.523 16.2 98.0001 16.2Z" fill="black"/>
<path d="M132.789 19.7383C132.789 24.5371 131.471 28.6504 125.617 31.5684L124.545 30.0918C127.296 28.7295 128.931 27.1475 129.854 25.2578L124.914 25.7324L124.668 24.0449L130.451 23.6758C130.653 22.9375 130.776 22.1553 130.838 21.3203H125.494V19.7383H132.789ZM136.973 18.1738V24.3965H139.328V25.9961H136.973V34.0293H135.021V18.1738H136.973ZM148.346 19.7383C148.346 24.5371 147.027 28.6504 141.174 31.5684L140.102 30.0918C142.853 28.7295 144.487 27.1475 145.41 25.2578L140.471 25.7324L140.225 24.0449L146.008 23.6758C146.21 22.9375 146.333 22.1553 146.395 21.3203H141.051V19.7383H148.346ZM152.529 18.1738V24.3965H154.885V25.9961H152.529V34.0293H150.578V18.1738H152.529ZM162.865 19.0703C166.275 19.0703 168.789 20.7754 168.789 23.3594C168.789 25.7412 166.741 27.332 163.832 27.6133V30.5312H170.16V32.1309H155.641V30.5312H161.898V27.6133C159.007 27.332 156.959 25.7412 156.977 23.3594C156.959 20.7754 159.473 19.0703 162.865 19.0703ZM162.865 20.6523C160.545 20.6348 158.875 21.6895 158.893 23.3594C158.875 25.082 160.545 26.1016 162.865 26.1016C165.221 26.1016 166.873 25.082 166.873 23.3594C166.873 21.6895 165.221 20.6348 162.865 20.6523ZM189.988 30.6016V32.2188H175.469V30.6016H181.727V28.0176H177.191V22.8145H186.332V20.8457H177.156V19.2637H188.266V24.3613H179.143V26.418H188.635V28.0176H183.66V30.6016H189.988ZM203.664 19.7207V21.5137C203.664 23.6406 203.664 25.8379 203.084 29.1777L201.098 29.002C201.713 25.873 201.713 23.5703 201.713 21.5137V21.3027H192.555V19.7207H203.664ZM205.51 30.2852V31.8848H191.025V30.2852H205.51ZM219.818 18.1914V29.6699H217.85V18.1914H219.818ZM220.258 32.166V33.748H209.307V28.5098H211.275V32.166H220.258ZM211.152 19.2285C213.561 19.2285 215.424 20.8984 215.424 23.2012C215.424 25.5566 213.561 27.1914 211.152 27.1914C208.727 27.1914 206.863 25.5566 206.863 23.2012C206.863 20.8984 208.727 19.2285 211.152 19.2285ZM211.152 20.9336C209.799 20.9336 208.762 21.8301 208.779 23.2012C208.762 24.6074 209.799 25.4863 211.152 25.4863C212.471 25.4863 213.508 24.6074 213.508 23.2012C213.508 21.8301 212.471 20.9336 211.152 20.9336Z" fill="black" fill-opacity="0.85"/>
</svg>
