<svg width="31" height="31" viewBox="0 0 31 31" fill="none" xmlns="http://www.w3.org/2000/svg">
<g clip-path="url(#clip0_1441_3815)">
<path fill-rule="evenodd" clip-rule="evenodd" d="M2.83502 0.486412C2.18647 -0.162137 1.13496 -0.162137 0.486412 0.486412C-0.162137 1.13496 -0.162137 2.18647 0.486412 2.83502L28.165 30.5135C28.8136 31.1621 29.865 31.1621 30.5135 30.5135C31.1621 29.865 31.1621 28.8136 30.5135 28.165L25.2466 22.8981C27.1529 20.2586 28.6471 17.0323 28.6471 13.3903C28.6471 6.02053 22.7808 0.00973066 15.4999 0.00973066C11.8819 0.00973066 8.61324 1.49389 6.24006 3.89145L2.83502 0.486412ZM11.9219 9.57326L18.11 15.7614C19.2124 14.9559 19.9284 13.6533 19.9284 12.1834C19.9284 9.73761 17.9457 7.75487 15.4999 7.75487C14.03 7.75487 12.7274 8.47095 11.9219 9.57326ZM2.35255 13.3903C2.35255 11.9445 2.57829 10.5511 2.99619 9.24511L21.1483 27.3971C19.5938 28.7952 18.1424 29.8444 17.1973 30.4796C16.1653 31.1734 14.8344 31.1734 13.8024 30.4796C12.2819 29.4575 9.45037 27.3644 6.98813 24.4696C4.5341 21.5846 2.35255 17.7909 2.35255 13.3903Z" fill="#767576"/>
</g>
<defs>
<clipPath id="clip0_1441_3815">
<rect width="31" height="31" fill="white"/>
</clipPath>
</defs>
</svg>
