<svg width="118" height="134" viewBox="0 0 118 134" fill="none" xmlns="http://www.w3.org/2000/svg">
<g clip-path="url(#clip0_319_551)">
<path d="M52.4322 28.413C52.1925 29.232 51.6045 29.9425 50.7645 30.3118C49.2507 30.975 47.4885 30.2855 46.8253 28.7753L39.9513 13.0988L31.1067 10.5053C29.523 10.0415 28.6147 8.37901 29.0785 6.79526C29.5422 5.21151 31.2047 4.30326 32.7885 4.76701L42.97 7.75251C43.8188 8.00101 44.5135 8.61176 44.867 9.42026L52.2992 26.3725C52.5932 27.0428 52.623 27.7638 52.4322 28.413Z" fill="#65778E"/>
<path d="M47.4238 18.1493C47.1893 18.949 46.6258 19.6438 45.812 20.0218L38.3763 23.4728C36.88 24.1675 35.102 23.5165 34.4073 22.0185C33.709 20.5188 34.3635 18.7443 35.8615 18.0495L43.2973 14.5985C44.7935 13.9038 46.5715 14.5548 47.2663 16.0528C47.5848 16.737 47.6215 17.479 47.4238 18.1493Z" fill="#65778E"/>
<path d="M33.1893 46.5675H40.6933C33.9295 45.9095 32.2828 40.5563 31.8995 37.471C31.8033 36.701 32.6695 36.1445 33.317 36.5715C37.2878 39.1895 41.794 37.3345 41.794 37.3345C35.7618 37.2068 33.6198 32.5395 32.9338 30.2855C32.7518 29.687 33.212 29.0885 33.8385 29.0885H46.0675C46.6608 29.0885 47.1053 28.546 46.988 27.965L46.022 23.1333C45.8908 22.4753 46.4718 21.896 47.128 22.0273L53.3633 23.282C53.974 23.4045 54.534 22.9093 54.485 22.288L54.163 18.1633C54.1158 17.5665 54.6425 17.0573 55.234 17.15C65.0183 18.6778 67.939 27.0428 68.576 29.4193C68.6775 29.7973 68.534 30.1875 68.2173 30.4185L62.5893 34.496C62.3898 34.6395 62.2568 34.846 62.2148 35.0875L55.7748 48.167L84.165 51.506L67.8095 64.407C67.323 64.7903 66.609 64.4438 66.609 63.826V57.5435L57.9063 64.407C57.4198 64.7903 56.7058 64.4438 56.7058 63.826V60.8353L43.4023 65.3538C42.7898 65.3345 42.3715 64.7395 42.543 64.1515L43.8258 59.7485C43.9955 59.1623 43.5685 58.5953 42.9595 58.5498C33.8123 57.8813 32.4403 50.3353 32.246 47.5738C32.2075 47.0278 32.6363 46.5693 33.184 46.5693L33.1893 46.5675Z" fill="#176B73"/>
<path d="M79.5415 38.8815L76.9235 42.4305C76.619 42.8435 76.0065 42.8522 75.6898 42.4497L72.8845 38.8815H79.5398H79.5415Z" fill="#FFB134"/>
<path d="M69.5577 45.4335L72.1757 41.8845C72.4802 41.4715 73.0927 41.4627 73.4095 41.8652L76.2147 45.4335H69.5577Z" fill="#FFB134"/>
<path d="M62.3513 29.0868H65.692H89.044V34.1233C89.044 36.7518 86.9143 38.8815 84.2858 38.8815H66.4725C64.663 38.8815 63.1965 40.348 63.1965 42.1575C63.1965 43.967 64.663 45.4335 66.4725 45.4335H85.7348C86.9685 45.4335 87.9923 46.431 87.9958 47.6648C88.0045 49.784 86.2878 51.5043 84.1703 51.5043H60.106C53.9145 51.5043 48.8973 46.4853 48.8973 40.2955C48.8973 34.104 53.9163 29.0868 60.106 29.0868H62.3513Z" fill="#FFB134"/>
<path d="M60.001 34.0603C63.0319 34.0603 65.489 31.6032 65.489 28.5723C65.489 25.5413 63.0319 23.0843 60.001 23.0843C56.9701 23.0843 54.513 25.5413 54.513 28.5723C54.513 31.6032 56.9701 34.0603 60.001 34.0603Z" fill="#FFB134"/>
<path d="M60.001 31.6068C61.6769 31.6068 63.0355 30.2482 63.0355 28.5722C63.0355 26.8963 61.6769 25.5378 60.001 25.5378C58.3251 25.5378 56.9665 26.8963 56.9665 28.5722C56.9665 30.2482 58.3251 31.6068 60.001 31.6068Z" fill="#191F28"/>
<path d="M81.19 29.0868C81.19 26.9185 82.947 25.1598 85.117 25.1598C87.2853 25.1598 89.044 26.9168 89.044 29.0868H81.19Z" fill="#EC6700"/>
</g>
<path d="M5.07441 83.7422C5.07441 85.1367 5.99043 86.5723 8.01387 87.1875L7.17988 88.541C5.78535 88.1445 4.80098 87.29 4.24043 86.2031C3.68672 87.3789 2.69551 88.3018 1.25996 88.7461L0.412304 87.3789C2.43574 86.7773 3.33809 85.2598 3.33809 83.7422V83.6465H0.836132V82.2793H3.33809V80.8984H5.10176V82.2793H7.59004V83.6465H5.07441V83.7422ZM10.9807 80.8301V90.0586H9.24434V85.8613H7.17988V84.4531H9.24434V80.8301H10.9807ZM11.2814 91.6445V93.0391H2.72285V89.2656H4.47285V91.6445H11.2814ZM22.705 80.8164V84.3848H24.3867V85.834H22.705V89.8809H20.955V80.8164H22.705ZM23.1562 91.6445V93.0391H14.6386V88.9238H16.375V91.6445H23.1562ZM16.3339 81.623C18.2343 81.623 19.7246 82.9355 19.7246 84.7812C19.7246 86.5996 18.2343 87.9395 16.3339 87.9395C14.4199 87.9395 12.916 86.5996 12.916 84.7812C12.916 82.9355 14.4199 81.623 16.3339 81.623ZM16.3339 83.1406C15.3906 83.127 14.625 83.7422 14.6386 84.7812C14.625 85.793 15.3906 86.4219 16.3339 86.4219C17.291 86.4219 18.0156 85.793 18.0293 84.7812C18.0156 83.7422 17.291 83.127 16.3339 83.1406ZM29.2068 81.6504C31.1755 81.6367 32.6521 82.9219 32.6521 84.6992C32.6521 86.4902 31.1755 87.7617 29.2068 87.7617C27.238 87.7617 25.7478 86.4902 25.7478 84.6992C25.7478 82.9219 27.238 81.6367 29.2068 81.6504ZM29.2068 83.1543C28.2224 83.1543 27.4704 83.7285 27.4841 84.6992C27.4704 85.6836 28.2224 86.2441 29.2068 86.2441C30.1911 86.2441 30.9431 85.6836 30.9568 84.6992C30.9431 83.7285 30.2048 83.1543 29.2068 83.1543ZM35.6325 80.8164V93.2852H33.8962V80.8164H35.6325ZM25.2282 89.3203C27.4431 89.334 30.5193 89.293 33.1853 88.9238L33.322 90.1816C30.5603 90.7148 27.6071 90.7422 25.4333 90.7422L25.2282 89.3203ZM52.3274 87.2285V88.623H40.9797V87.2285H45.7649V86.2305C43.5227 86.0459 42.1145 85.1162 42.1145 83.6738C42.1145 82.1152 43.9055 81.1309 46.6536 81.1309C49.3743 81.1309 51.1653 82.1152 51.1789 83.6738C51.1653 85.123 49.7434 86.0527 47.5149 86.2305V87.2285H52.3274ZM51.0422 91.6445V93.0391H42.3469V89.4023H44.0969V91.6445H51.0422ZM46.6536 82.5117C44.9309 82.5117 43.9192 82.9355 43.9328 83.6738C43.9192 84.4805 44.9309 84.8633 46.6536 84.8633C48.3762 84.8633 49.3743 84.4805 49.3743 83.6738C49.3743 82.9355 48.3762 82.5117 46.6536 82.5117ZM63.4639 86.3809V87.7617H59.8545V90.4141H64.708V91.8359H53.3193V90.4141H58.1182V87.7617H54.6592V81.6914H63.3682V83.0859H56.4092V86.3809H63.4639ZM77.034 86.3945V87.6934H65.6453V86.3945H77.034ZM75.6668 88.3086V91.248H68.6941V91.959H76.0359V93.1484H66.9578V90.1406H73.9441V89.5117H66.9441V88.3086H75.6668ZM75.6531 81.0352V83.9609H68.8035V84.6309H75.8718V85.8066H67.0672V82.8535H73.9031V82.2246H67.0398V81.0352H75.6531ZM91.6096 86.3125V87.7344H82.7366V81.8965H84.4866V86.3125H91.6096ZM92.8538 90.332V91.7812H81.4651V90.332H92.8538ZM104.236 80.8164V93.2578H102.473V80.8164H104.236ZM97.7286 82.0879C97.7149 85.4375 97.25 88.1309 95.0625 90.5098L93.7364 89.5117C95.3428 87.7275 95.9307 85.9639 96.0606 83.5098H94.3243V82.0879H97.7286ZM101.215 82.0879C101.215 85.5879 100.818 88.6777 98.7403 91.3027L97.3047 90.4004C98.9043 88.3359 99.4307 86.2305 99.5469 83.5098H98.1661V82.0879H101.215ZM115.961 80.8164V85.4375H117.793V86.8594H115.961V93.2852H114.211V80.8164H115.961ZM112.474 81.9648V83.373H108.373V88.8281C110.178 88.8076 111.668 88.7256 113.322 88.4316L113.513 89.8945C111.586 90.2227 109.89 90.2773 107.689 90.2637H106.637V81.9648H112.474Z" fill="#1B1B1B"/>
<path d="M43.5577 112.305C43.5577 115.293 45.5206 118.369 49.8566 119.688L48.0695 122.588C45.0812 121.738 42.9718 119.907 41.7706 117.578C40.5841 120.098 38.4601 122.075 35.3839 123.027L33.5675 120.098C37.9034 118.809 39.837 115.557 39.837 112.305V112.1H34.4757V109.17H39.837V106.211H43.6163V109.17H48.9484V112.1H43.5577V112.305ZM56.214 106.064V125.84H52.4933V116.846H48.0695V113.828H52.4933V106.064H56.214ZM56.8585 129.238V132.227H38.5187V124.141H42.2687V129.238H56.8585ZM84.2274 119.775V122.764H59.911V119.775H70.1649V117.637C65.3602 117.241 62.3427 115.249 62.3427 112.158C62.3427 108.818 66.1805 106.709 72.0692 106.709C77.8993 106.709 81.7372 108.818 81.7665 112.158C81.7372 115.264 78.6903 117.256 73.9149 117.637V119.775H84.2274ZM81.4735 129.238V132.227H62.8407V124.434H66.5907V129.238H81.4735ZM72.0692 109.668C68.3778 109.668 66.2098 110.576 66.2391 112.158C66.2098 113.887 68.3778 114.707 72.0692 114.707C75.7606 114.707 77.8993 113.887 77.8993 112.158C77.8993 110.576 75.7606 109.668 72.0692 109.668Z" fill="#1B1B1B"/>
<defs>
<clipPath id="clip0_319_551">
<rect width="70" height="70" fill="white" transform="translate(24)"/>
</clipPath>
</defs>
</svg>
