<svg width="30" height="30" viewBox="0 0 30 30" fill="none" xmlns="http://www.w3.org/2000/svg">
<g clip-path="url(#clip0_559_1120)">
<path d="M28.0568 13.2886L4.29077 19.0636V16.7274L28.0568 10.9524V13.2886Z" fill="#03905A"/>
<path d="M18.2552 4.68471L4.62469 18.3152C4.15577 18.7842 4.15577 19.5444 4.62469 20.0134L12.3993 27.788C12.8683 28.2569 13.6285 28.2569 14.0974 27.788L27.728 14.1575C28.1969 13.6885 28.1969 12.9283 27.728 12.4593L19.9534 4.6847C19.4844 4.21578 18.7242 4.21578 18.2552 4.68471Z" fill="#03905A"/>
<path d="M18.2547 2.21229L4.6242 15.8428C4.15528 16.3118 4.15528 17.072 4.62421 17.541L12.3988 25.3156C12.8678 25.7845 13.628 25.7845 14.097 25.3156L27.7275 11.685C28.1964 11.2161 28.1964 10.4559 27.7275 9.98693L19.9529 2.21229C19.4839 1.74337 18.7237 1.74337 18.2547 2.21229Z" fill="#4FC578"/>
<path d="M13.0029 7.46428L9.87659 10.5906L19.3493 20.0633L22.4756 16.937L13.0029 7.46428Z" fill="#7BD58F"/>
<path d="M27.3443 20.0864V27.7882C27.3443 27.9584 27.2063 28.0957 27.0368 28.0957C25.8728 28.0957 24.9286 27.1522 24.9286 25.9874V20.0864H27.3443Z" fill="#E5E8EB"/>
<path d="M21.2558 20.0864V25.5922C21.2558 25.7564 21.1223 25.8899 20.9581 25.8899C19.8316 25.8899 18.9181 24.9764 18.9181 23.8499V20.0864H21.2558Z" fill="#E5E8EB"/>
<path d="M27.3443 20.0865V22.9883H18.9181V20.0865C18.9181 17.7593 20.8043 15.873 23.1316 15.873C25.4588 15.873 27.3443 17.7593 27.3443 20.0865Z" fill="#E5E8EB"/>
<path d="M23.1309 19.4251C23.7984 19.4251 24.3399 19.9666 24.3399 20.6341V27.1898C24.3399 27.3601 24.2019 27.4973 24.0324 27.4973C22.8676 27.4973 21.9226 26.5531 21.9226 25.3876V20.6333C21.9226 19.9658 22.4641 19.4243 23.1316 19.4243L23.1309 19.4251Z" fill="#E5E8EB"/>
<path d="M9.92929 2.67236H2.22754C2.05729 2.67236 1.92004 2.81036 1.92004 2.97986C1.92004 4.14386 2.86354 5.08811 4.02829 5.08811H9.92929V2.67236Z" fill="#E5E8EB"/>
<path d="M9.92935 8.76099H4.4236C4.25935 8.76099 4.12585 8.89449 4.12585 9.05874C4.12585 10.1852 5.03935 11.0987 6.16585 11.0987H9.92935V8.76099Z" fill="#E5E8EB"/>
<path d="M9.92934 2.67238H7.02759V11.0986H9.92934C12.2566 11.0986 14.1428 9.21238 14.1428 6.88513C14.1428 4.55788 12.2566 2.67238 9.92934 2.67238Z" fill="#E5E8EB"/>
<path d="M10.5915 6.88503C10.5915 6.21753 10.05 5.67603 9.38254 5.67603H2.82679C2.65654 5.67603 2.51929 5.81403 2.51929 5.98353C2.51929 7.14828 3.46354 8.09328 4.62904 8.09328H9.38329C10.0508 8.09328 10.5923 7.55178 10.5923 6.88428L10.5915 6.88503Z" fill="#E5E8EB"/>
</g>
<defs>
<clipPath id="clip0_559_1120">
<rect width="30" height="30" fill="white"/>
</clipPath>
</defs>
</svg>
