<svg width="30" height="30" viewBox="0 0 30 30" fill="none" xmlns="http://www.w3.org/2000/svg">
<g clip-path="url(#clip0_529_405)">
<path d="M9.84903 14.5598C12.43 14.5598 14.5223 12.4675 14.5223 9.88651C14.5223 7.30554 12.43 5.21326 9.84903 5.21326C7.26807 5.21326 5.17578 7.30554 5.17578 9.88651C5.17578 12.4675 7.26807 14.5598 9.84903 14.5598Z" fill="#80C7BC" fill-opacity="0.49"/>
<path d="M9.849 15.9893C3.5685 15.9893 1.125 20.2718 1.125 22.2638C1.125 24.2558 6.3255 24.786 9.849 24.786C13.3725 24.786 18.573 24.2558 18.573 22.2638C18.573 20.2718 16.1302 15.9893 9.849 15.9893Z" fill="#80C7BC" fill-opacity="0.49"/>
<path d="M20.151 14.5598C22.732 14.5598 24.8243 12.4675 24.8243 9.88651C24.8243 7.30554 22.732 5.21326 20.151 5.21326C17.5701 5.21326 15.4778 7.30554 15.4778 9.88651C15.4778 12.4675 17.5701 14.5598 20.151 14.5598Z" fill="#80C7BC"/>
<path d="M20.151 15.9893C13.8705 15.9893 11.427 20.2718 11.427 22.2638C11.427 24.2558 16.6275 24.786 20.151 24.786C23.6745 24.786 28.875 24.2558 28.875 22.2638C28.875 20.2718 26.4323 15.9893 20.151 15.9893Z" fill="#80C7BC"/>
</g>
<defs>
<clipPath id="clip0_529_405">
<rect width="30" height="30" fill="white"/>
</clipPath>
</defs>
</svg>
