<svg width="74" height="74" viewBox="0 0 74 74" fill="none" xmlns="http://www.w3.org/2000/svg">
<g clip-path="url(#clip0_1336_4094)">
<path d="M74 37C74 57.4343 57.4343 74 37 74C16.5678 74 0 57.4343 0 37C0 16.5678 16.5678 0 37 0C57.4343 0 74 16.5678 74 37Z" fill="#FFCC4D"/>
<path d="M58.495 36.5828C58.3717 36.3053 55.4137 29.8057 49.3334 29.8057C43.2551 29.8057 40.2951 36.3053 40.1718 36.5828C39.9827 37.0083 40.106 37.5058 40.4698 37.7977C40.8296 38.0896 41.3455 38.0998 41.7237 37.8264C41.7484 37.8079 44.3178 35.9723 49.3334 35.9723C54.3202 35.9723 56.8855 37.7833 56.9431 37.8244C57.124 37.9601 57.3418 38.0279 57.5556 38.0279C57.7817 38.0279 58.0099 37.9518 58.197 37.8038C58.5608 37.5119 58.6862 37.0104 58.495 36.5828ZM35.8839 36.5828C35.7606 36.3053 32.8026 29.8057 26.7223 29.8057C20.644 29.8057 17.684 36.3053 17.5607 36.5828C17.3716 37.0083 17.4949 37.5058 17.8567 37.7977C18.2185 38.0896 18.7344 38.0998 19.1106 37.8264C19.1373 37.8079 21.7047 35.9723 26.7223 35.9723C31.7091 35.9723 34.2744 37.7833 34.3319 37.8244C34.5149 37.9601 34.7307 38.0279 34.9445 38.0279C35.1706 38.0279 35.3988 37.9518 35.5858 37.8038C35.9517 37.5119 36.073 37.0104 35.8839 36.5828ZM26.7223 57.5557C26.7223 57.5557 28.7778 49.3334 37.0001 49.3334C45.2223 49.3334 47.2778 57.5557 47.2778 57.5557C47.2778 57.5557 45.2223 55.5001 37.0001 55.5001C28.7778 55.5001 26.7223 57.5557 26.7223 57.5557Z" fill="#664500"/>
<path d="M22.6111 22.6112C22.6111 28.2887 18.0108 32.889 12.3333 32.889C6.65793 32.889 2.05554 28.2887 2.05554 22.6112C2.05554 16.9338 10.2778 2.05566 12.3333 2.05566C14.3889 2.05566 22.6111 16.9338 22.6111 22.6112Z" fill="#5DADEC"/>
</g>
<defs>
<clipPath id="clip0_1336_4094">
<rect width="74" height="74" fill="white"/>
</clipPath>
</defs>
</svg>
