<svg width="163" height="163" viewBox="0 0 163 163" fill="none" xmlns="http://www.w3.org/2000/svg">
<rect width="163" height="163" rx="81.5" fill="#FDD756"/>
<g clip-path="url(#clip0_1397_3803)">
<path d="M91.9292 110.91L67.499 86.4802L69.2507 84.7284L94.682 110.156C97.5452 113.02 102.131 113.078 104.923 110.286C107.714 107.495 107.656 102.909 104.793 100.046L79.3615 74.6144L81.1132 72.8627L103.834 95.5834C106.687 98.4369 111.263 98.4889 114.058 95.6939C116.85 92.9022 116.801 88.3262 113.945 85.4694L113.941 85.4662L93.1187 64.6434L76.8525 59.5019C76.8525 59.5019 63.9792 56.7947 63.9792 47.6622L64.0442 47.6459C64.028 47.4347 63.9792 47.2299 63.9792 47.0154C63.9792 44.5292 65.1427 42.3354 66.927 40.8729C55.3277 36.8949 41.9702 39.4949 32.7142 48.7509C19.7695 61.6957 19.7695 82.6874 32.7142 95.6322L40.7742 103.692L45.529 108.447L58.8475 121.765C61.7107 124.629 66.2965 124.687 69.0882 121.895C70.1542 120.829 70.7977 119.497 71.035 118.103C71.4185 115.847 70.7262 113.423 68.9582 111.655L55.6397 98.3362L57.3915 96.5844L81.825 121.018C82.1467 121.34 82.4977 121.613 82.8585 121.863C85.7055 123.845 89.5892 123.624 92.0657 121.145C92.7515 120.459 93.2585 119.666 93.603 118.818C94.656 116.205 94.1002 113.065 91.939 110.904L91.9292 110.91Z" fill="#FFCCA8"/>
<path d="M81.8185 121.02L57.385 96.5864L55.6332 98.3382L68.9517 111.657C70.7197 113.425 71.412 115.849 71.0285 118.105C71.3405 119.31 71.9287 120.454 72.8712 121.397C75.5687 124.094 79.8457 124.215 82.8455 121.868C82.4847 121.618 82.1337 121.342 81.812 121.02H81.8185Z" fill="#E68E51"/>
<path d="M122.775 95.6375C122.775 100.253 121.02 104.9 117.477 108.443L105.517 120.37C102.527 123.36 97.7175 123.425 94.825 120.5C94.305 120.013 93.915 119.428 93.59 118.81C93.9475 117.965 94.11 117.055 94.11 116.145C94.11 114.26 93.3625 112.343 91.9325 110.913L67.4925 86.4725L69.2475 84.7175L94.6625 110.165C97.555 113.025 102.137 113.09 104.932 110.295C107.695 107.5 107.662 102.918 104.802 100.058L79.355 74.61L81.11 72.855L103.827 95.5725C106.687 98.4325 111.27 98.4975 114.065 95.7025C115.43 94.3375 116.112 92.5175 116.112 90.6975C116.112 88.8125 115.397 86.9275 113.935 85.465L93.1025 64.6325L76.8525 59.4975C76.8525 59.4975 63.9825 56.8 63.9825 47.6675L64.0475 47.635C64.3725 51.7625 67.7525 54.98 71.945 54.98L93.0375 58.555L93.2325 58.5875L105.42 70.775L117.477 82.8325C121.02 86.375 122.775 90.99 122.775 95.6375Z" fill="#E68E51"/>
<path d="M140 72.2049C140 80.6874 136.75 89.1699 130.282 95.6374L117.477 108.442C124.562 101.357 124.562 89.8849 117.477 82.8324L110.555 75.9099L93.2325 58.5874L93.0375 58.5549L71.945 54.9799C67.7525 54.9799 64.3725 51.7624 64.0475 47.6349C64.015 47.4399 63.9825 47.2449 63.9825 47.0174C63.9825 44.5474 65.1525 42.3374 66.9075 40.8749C68.305 39.7374 70.0275 39.0549 71.945 39.0549H106.85C115.332 39.0549 123.815 42.2724 130.282 48.7399C136.75 55.2399 140 63.7224 140 72.2049Z" fill="#FFB582"/>
</g>
<defs>
<clipPath id="clip0_1397_3803">
<rect width="130" height="130" fill="white" transform="translate(16.5 16.5)"/>
</clipPath>
</defs>
</svg>
