<svg width="16" height="16" viewBox="0 0 16 16" fill="none" xmlns="http://www.w3.org/2000/svg">
<path d="M1.07692 1.06667C0.482155 1.06667 0 1.54423 0 2.13333V3.2C0 3.7891 0.482155 4.26667 1.07692 4.26667H1.61538V13.8667C1.61538 15.0449 2.57969 16 3.76923 16H10.2308C11.4203 16 12.3846 15.0449 12.3846 13.8667V4.26667H12.9231C13.5178 4.26667 14 3.7891 14 3.2V2.13333C14 1.54423 13.5178 1.06667 12.9231 1.06667H9.15385C9.15385 0.477563 8.67169 0 8.07692 0H5.92308C5.32831 0 4.84615 0.477563 4.84615 1.06667H1.07692ZM4.30769 5.33333C4.60508 5.33333 4.84615 5.57211 4.84615 5.86667V13.3333C4.84615 13.6279 4.60508 13.8667 4.30769 13.8667C4.01031 13.8667 3.76923 13.6279 3.76923 13.3333L3.76923 5.86667C3.76923 5.57211 4.01031 5.33333 4.30769 5.33333ZM7 5.33333C7.29738 5.33333 7.53846 5.57211 7.53846 5.86667V13.3333C7.53846 13.6279 7.29738 13.8667 7 13.8667C6.70262 13.8667 6.46154 13.6279 6.46154 13.3333V5.86667C6.46154 5.57211 6.70262 5.33333 7 5.33333ZM10.2308 5.86667V13.3333C10.2308 13.6279 9.98969 13.8667 9.69231 13.8667C9.39492 13.8667 9.15385 13.6279 9.15385 13.3333V5.86667C9.15385 5.57211 9.39492 5.33333 9.69231 5.33333C9.98969 5.33333 10.2308 5.57211 10.2308 5.86667Z" fill="#EB6570"/>
</svg>
