<svg width="254" height="30" viewBox="0 0 254 30" fill="none" xmlns="http://www.w3.org/2000/svg">
<g clip-path="url(#clip0_529_100)">
<path d="M12.1852 12.177C12.0825 12.528 11.8305 12.8325 11.4705 12.9908C10.8217 13.275 10.0665 12.9795 9.78225 12.3323L6.83625 5.61377L3.04575 4.50227C2.367 4.30352 1.97775 3.59102 2.1765 2.91227C2.37525 2.23352 3.08775 1.84427 3.7665 2.04302L8.13 3.32252C8.49375 3.42902 8.7915 3.69077 8.943 4.03727L12.1283 11.3025C12.2542 11.5898 12.267 11.8988 12.1852 12.177Z" fill="#65778E"/>
<path d="M10.0388 7.77821C9.93825 8.12096 9.69675 8.41871 9.348 8.58071L6.16125 10.0597C5.52 10.3575 4.758 10.0785 4.46025 9.43646C4.161 8.79371 4.4415 8.03321 5.0835 7.73546L8.27025 6.25646C8.9115 5.95871 9.6735 6.23771 9.97125 6.87971C10.1078 7.17296 10.1235 7.49096 10.0388 7.77821Z" fill="#65778E"/>
<path d="M3.93825 19.9575H7.15425C4.2555 19.6755 3.54975 17.3813 3.3855 16.059C3.34425 15.729 3.7155 15.4905 3.993 15.6735C5.69475 16.7955 7.626 16.0005 7.626 16.0005C5.04075 15.9458 4.12275 13.9455 3.82875 12.9795C3.75075 12.723 3.948 12.4665 4.2165 12.4665H9.4575C9.71175 12.4665 9.90225 12.234 9.852 11.985L9.438 9.91429C9.38175 9.63229 9.63075 9.38404 9.912 9.44029L12.5842 9.97804C12.846 10.0305 13.086 9.81829 13.065 9.55204L12.927 7.78429C12.9067 7.52854 13.1325 7.31029 13.386 7.35004C17.5792 8.00479 18.831 11.5898 19.104 12.6083C19.1475 12.7703 19.086 12.9375 18.9502 13.0365L16.5382 14.784C16.4528 14.8455 16.3957 14.934 16.3777 15.0375L13.6177 20.643L25.785 22.074L18.7755 27.603C18.567 27.7673 18.261 27.6188 18.261 27.354V24.6615L14.5312 27.603C14.3227 27.7673 14.0167 27.6188 14.0167 27.354V26.0723L8.31525 28.0088C8.05275 28.0005 7.8735 27.7455 7.947 27.4935L8.49675 25.6065C8.5695 25.3553 8.3865 25.1123 8.1255 25.0928C4.20525 24.8063 3.61725 21.5723 3.534 20.3888C3.5175 20.1548 3.70125 19.9583 3.936 19.9583L3.93825 19.9575Z" fill="#176B73"/>
<path d="M23.8035 16.6636L22.6815 18.1846C22.551 18.3616 22.2885 18.3653 22.1528 18.1928L20.9505 16.6636H23.8028H23.8035Z" fill="#FFB134"/>
<path d="M19.5247 19.4715L20.6467 17.9505C20.7772 17.7735 21.0397 17.7698 21.1755 17.9423L22.3777 19.4715H19.5247Z" fill="#FFB134"/>
<path d="M16.4363 12.4658H17.868H27.876V14.6243C27.876 15.7508 26.9633 16.6636 25.8368 16.6636H18.2025C17.427 16.6636 16.7985 17.2921 16.7985 18.0676C16.7985 18.8431 17.427 19.4716 18.2025 19.4716H26.4578C26.9865 19.4716 27.4253 19.8991 27.4268 20.4278C27.4305 21.3361 26.6947 22.0733 25.7872 22.0733H15.474C12.8205 22.0733 10.6702 19.9223 10.6702 17.2696C10.6702 14.6161 12.8212 12.4658 15.474 12.4658H16.4363Z" fill="#FFB134"/>
<path d="M15.429 14.5973C16.728 14.5973 17.781 13.5443 17.781 12.2453C17.781 10.9463 16.728 9.89331 15.429 9.89331C14.13 9.89331 13.077 10.9463 13.077 12.2453C13.077 13.5443 14.13 14.5973 15.429 14.5973Z" fill="#FFB134"/>
<path d="M15.429 13.5458C16.1472 13.5458 16.7295 12.9636 16.7295 12.2453C16.7295 11.5271 16.1472 10.9448 15.429 10.9448C14.7108 10.9448 14.1285 11.5271 14.1285 12.2453C14.1285 12.9636 14.7108 13.5458 15.429 13.5458Z" fill="#191F28"/>
<path d="M24.51 12.4657C24.51 11.5365 25.263 10.7827 26.193 10.7827C27.1223 10.7827 27.876 11.5357 27.876 12.4657H24.51Z" fill="#EC6700"/>
</g>
<path d="M47.7646 12.8594C47.5068 11.1406 46.1748 10.0879 44.3701 10.0879C41.9424 10.0879 40.3525 11.957 40.3525 15.2227C40.3525 18.5742 41.9639 20.3574 44.3486 20.3574C46.1318 20.3574 47.4424 19.3691 47.7646 17.6934L51.0303 17.7148C50.665 20.5938 48.2588 23.2148 44.3057 23.2148C40.1377 23.2148 37.0654 20.293 37.0654 15.2227C37.0654 10.1523 40.2021 7.23047 44.3057 7.23047C47.8936 7.23047 50.6006 9.29297 51.0303 12.8594H47.7646ZM56.4014 16.2539V23H53.2217V7.44531H56.3154V13.375H56.4443C56.9814 12.0215 58.1631 11.1836 59.9248 11.1836C62.3525 11.1836 63.9639 12.8164 63.9639 15.5664V23H60.7842V16.125C60.7842 14.6855 60.0107 13.8262 58.6787 13.8262C57.3467 13.8262 56.4014 14.707 56.4014 16.2539ZM71.6982 23.2363C68.1318 23.2363 65.9404 20.916 65.9404 17.2207C65.9404 13.6113 68.1533 11.1836 71.5693 11.1836C74.6416 11.1836 77.0479 13.1172 77.0479 17.0918V17.9941H69.0771C69.0771 19.7559 70.1299 20.8516 71.7627 20.8516C72.8369 20.8516 73.6104 20.3789 73.9326 19.6699H76.9619C76.5107 21.8184 74.5771 23.2363 71.6982 23.2363ZM69.0771 15.9961H74.04C74.04 14.5781 73.0518 13.5684 71.6338 13.5684C70.1729 13.5684 69.1309 14.6533 69.0771 15.9961ZM84.2881 23.2363C80.7646 23.2363 78.5732 20.8086 78.5732 17.1992C78.5732 13.5898 80.7646 11.1836 84.2881 11.1836C87.8115 11.1836 90.0244 13.5898 90.0244 17.1992C90.0244 20.8086 87.8115 23.2363 84.2881 23.2363ZM84.3096 20.7656C85.9424 20.7656 86.7803 19.2402 86.7803 17.1992C86.7803 15.1367 85.9424 13.6113 84.3096 13.6113C82.6553 13.6113 81.7959 15.1367 81.7959 17.1992C81.7959 19.2402 82.6553 20.7656 84.3096 20.7656ZM95.2021 16.2539V23H92.0225V11.334H95.0518V13.375H95.1807C95.7178 12.0215 96.9639 11.1836 98.6826 11.1836C101.11 11.1836 102.722 12.8379 102.7 15.5664V23H99.542V16.125C99.542 14.6855 98.7471 13.8262 97.4365 13.8262C96.1045 13.8262 95.2021 14.707 95.2021 16.2539ZM107.04 23.1934C106.03 23.1934 105.214 22.377 105.235 21.3887C105.214 20.4004 106.03 19.6055 107.04 19.6055C107.985 19.6055 108.823 20.4004 108.823 21.3887C108.823 22.377 107.985 23.1934 107.04 23.1934ZM107.04 15.0078C106.03 15.0078 105.214 14.1914 105.235 13.2031C105.214 12.2148 106.03 11.4199 107.04 11.4199C107.985 11.4199 108.823 12.2148 108.823 13.2031C108.823 14.1914 107.985 15.0078 107.04 15.0078ZM125.688 15.2227C125.688 20.293 122.53 23.2148 118.427 23.2148C114.28 23.2148 111.144 20.2715 111.144 15.2227C111.144 10.1523 114.28 7.23047 118.427 7.23047C122.53 7.23047 125.688 10.1523 125.688 15.2227ZM122.401 15.2227C122.401 11.8926 120.833 10.0879 118.427 10.0879C116.021 10.0879 114.431 11.8926 114.431 15.2227C114.431 18.5527 116.021 20.3574 118.427 20.3574C120.833 20.3574 122.401 18.5527 122.401 15.2227ZM131.124 16.2539V23H127.944V11.334H130.974V13.375H131.103C131.64 12.0215 132.886 11.1836 134.604 11.1836C137.032 11.1836 138.644 12.8379 138.622 15.5664V23H135.464V16.125C135.464 14.6855 134.669 13.8262 133.358 13.8262C132.026 13.8262 131.124 14.707 131.124 16.2539ZM152.694 10.0234C152.694 12.2148 154.134 14.4707 157.313 15.4375L156.003 17.5645C153.812 16.9414 152.265 15.5986 151.384 13.8906C150.514 15.7383 148.956 17.1885 146.7 17.8867L145.368 15.7383C148.548 14.793 149.966 12.4082 149.966 10.0234V9.87305H146.034V7.72461H149.966V5.55469H152.737V7.72461H156.647V9.87305H152.694V10.0234ZM161.976 5.44727V19.9492H159.247V13.3535H156.003V11.1406H159.247V5.44727H161.976ZM162.448 22.4414V24.6328H148.999V18.7031H151.749V22.4414H162.448ZM182.343 15.502V17.6934H164.511V15.502H172.03V13.9336C168.507 13.6436 166.294 12.1826 166.294 9.91602C166.294 7.4668 169.108 5.91992 173.427 5.91992C177.702 5.91992 180.517 7.4668 180.538 9.91602C180.517 12.1934 178.282 13.6543 174.78 13.9336V15.502H182.343ZM180.323 22.4414V24.6328H166.659V18.918H169.409V22.4414H180.323ZM173.427 8.08984C170.72 8.08984 169.13 8.75586 169.151 9.91602C169.13 11.1836 170.72 11.7852 173.427 11.7852C176.134 11.7852 177.702 11.1836 177.702 9.91602C177.702 8.75586 176.134 8.08984 173.427 8.08984Z" fill="#5CADA1"/>
<defs>
<clipPath id="clip0_529_100">
<rect width="30" height="30" fill="white"/>
</clipPath>
</defs>
</svg>
