<svg width="100" height="100" viewBox="0 0 100 100" fill="none" xmlns="http://www.w3.org/2000/svg">
<g clip-path="url(#clip0_559_1081)">
<path d="M6.87758 15.6974L13.9001 41.1099L37.5726 21.5549L13.9451 9.85988C10.0551 7.93488 5.72008 11.5149 6.87758 15.6999V15.6974Z" fill="#2272EB"/>
<path d="M67.8551 69.0323H56.3676C55.0926 69.0323 54.0601 67.9998 54.0601 66.7248C54.0601 65.4498 55.0926 64.4173 56.3676 64.4173H85.2151C85.6401 64.4173 86.0451 64.3523 86.4401 64.2548C87.1776 61.2048 87.6101 58.0373 87.6101 54.7623C87.6101 54.7298 87.6051 54.7023 87.6051 54.6698C86.8901 54.2923 86.0801 54.0698 85.2151 54.0698C82.3626 54.0698 80.0426 56.3898 80.0426 59.2448C80.0426 60.5198 79.0101 61.5523 77.7351 61.5523C76.4601 61.5523 75.4301 60.5198 75.4301 59.2448C75.4301 53.8473 79.8201 49.4573 85.2151 49.4573C85.9201 49.4573 86.5976 49.5573 87.2601 49.6998C84.7651 29.8048 67.8226 14.4023 47.2501 14.4023C24.9576 14.4023 6.88757 32.4723 6.88757 54.7648C6.88757 77.0573 24.9576 95.1248 47.2476 95.1248C64.5076 95.1248 79.1951 84.2698 84.9651 69.0323H67.8551Z" fill="#FFC84D"/>
<path d="M46.7717 12.6559L43.3467 8.57205C42.6333 7.72149 41.3655 7.61026 40.515 8.32361L36.4311 11.7487C35.5806 12.462 35.4694 13.7298 36.1827 14.5804L39.6078 18.6642C40.3211 19.5148 41.5889 19.626 42.4394 18.9127L46.5233 15.4876C47.3739 14.7742 47.4851 13.5065 46.7717 12.6559Z" fill="#B44BD7"/>
<path d="M74.8747 17.8329L68.9238 20.8345C67.6861 21.4588 67.1888 22.9682 67.8131 24.2059L70.8147 30.1568C71.439 31.3945 72.9484 31.8917 74.1861 31.2675L80.137 28.2659C81.3747 27.6416 81.872 26.1322 81.2477 24.8945L78.2461 18.9436C77.6218 17.7059 76.1124 17.2086 74.8747 17.8329Z" fill="#F66570"/>
<path d="M39.6623 77.8961L34.4754 79.123C33.3952 79.3785 32.7266 80.4614 32.9821 81.5417L34.209 86.7286C34.4645 87.8089 35.5474 88.4775 36.6277 88.2219L41.8145 86.9951C42.8948 86.7395 43.5634 85.6566 43.3079 84.5764L42.081 79.3895C41.8255 78.3092 40.7426 77.6406 39.6623 77.8961Z" fill="white"/>
<path d="M18.2746 72.5198L16.2555 66.1679C15.8355 64.8468 14.4242 64.1163 13.1031 64.5362L6.75124 66.5553C5.43014 66.9753 4.69961 68.3866 5.11955 69.7077L7.13861 76.0596C7.55855 77.3807 8.96994 78.1112 10.291 77.6912L16.6429 75.6722C17.964 75.2522 18.6945 73.8409 18.2746 72.5198Z" fill="#6376FF"/>
<path d="M94.295 55.6525C93.1025 52.6525 90.47 50.395 87.2575 49.7025C86.595 49.56 85.9175 49.46 85.2125 49.46C79.815 49.46 75.4275 53.85 75.4275 59.2475C75.4275 60.5225 76.46 61.555 77.7325 61.555C79.005 61.555 80.04 60.5225 80.04 59.2475C80.04 56.395 82.36 54.0725 85.2125 54.0725C86.0775 54.0725 86.8875 54.295 87.6025 54.6725C88.875 55.3475 89.8375 56.535 90.205 57.965C90.31 58.3775 90.385 58.8025 90.385 59.2475C90.385 61.6775 88.6975 63.705 86.4375 64.2575C86.0425 64.355 85.635 64.42 85.2125 64.42H56.365C56.275 64.42 56.1975 64.4625 56.11 64.4725C55.67 64.8325 55.2125 65.16 54.78 65.4875C55.86 66.3025 57.1975 67.56 57.92 69.035H85.21C90.6075 69.035 94.995 64.645 94.995 59.25C94.995 57.9775 94.735 56.77 94.29 55.655L94.295 55.6525Z" fill="#2272EB"/>
<path d="M57.1975 12.3974C59.2741 12.3974 60.9575 10.714 60.9575 8.63744C60.9575 6.56085 59.2741 4.87744 57.1975 4.87744C55.1209 4.87744 53.4375 6.56085 53.4375 8.63744C53.4375 10.714 55.1209 12.3974 57.1975 12.3974Z" fill="#EDCCF8"/>
<path d="M12.2776 90.6523C14.3542 90.6523 16.0376 88.9689 16.0376 86.8923C16.0376 84.8157 14.3542 83.1323 12.2776 83.1323C10.201 83.1323 8.51758 84.8157 8.51758 86.8923C8.51758 88.9689 10.201 90.6523 12.2776 90.6523Z" fill="#EDCCF8"/>
<path d="M82.3475 89.8699C84.4241 89.8699 86.1075 88.1864 86.1075 86.1099C86.1075 84.0333 84.4241 82.3499 82.3475 82.3499C80.2709 82.3499 78.5875 84.0333 78.5875 86.1099C78.5875 88.1864 80.2709 89.8699 82.3475 89.8699Z" fill="#B44BD7"/>
<path d="M89.1926 36.8349C91.2692 36.8349 92.9526 35.1515 92.9526 33.0749C92.9526 30.9984 91.2692 29.3149 89.1926 29.3149C87.116 29.3149 85.4326 30.9984 85.4326 33.0749C85.4326 35.1515 87.116 36.8349 89.1926 36.8349Z" fill="#7896FF"/>
<path d="M54.7826 65.485C55.2151 65.1575 55.6726 64.83 56.1126 64.47C57.3076 63.4925 58.3426 62.2725 58.2126 60.1225C57.9701 56.11 51.5901 54.98 50.7501 54.98C49.8876 54.98 49.3501 55.0625 49.3426 55.5875C49.3351 56.1125 49.9651 56.2925 50.8701 56.565C53.6376 57.4 54.7276 59.0175 54.7276 60.17C54.7276 62.27 52.6751 63.31 51.5076 64.06C50.5601 64.67 49.9601 64.8175 49.9351 65.335C49.9151 65.7775 50.5351 66.005 51.5026 66.62C52.4701 67.235 54.5701 68.62 54.5701 70.9575C54.5701 72.7625 53.0401 74.1225 50.8651 74.985C49.5626 75.5025 49.0626 75.7325 49.1401 76.2275C49.2176 76.7225 49.9201 76.825 51.0776 76.825C53.0351 76.825 58.1226 75.7725 58.4351 71.335C58.4926 70.53 58.2751 69.7575 57.9201 69.0325C57.1976 67.5575 55.8601 66.3 54.7826 65.485Z" fill="#FF6D00"/>
<path d="M29.2776 47.9699C28.6876 48.3299 27.9301 47.8549 28.0076 47.1699C28.4426 43.3524 31.4226 40.2549 35.2876 39.9149C39.1526 39.5774 42.6251 42.1099 43.7151 45.7949C43.9101 46.4574 43.2476 47.0549 42.6051 46.8049C41.2001 46.2574 38.8276 45.6199 35.8101 45.8849C32.7926 46.1499 30.5676 47.1874 29.2776 47.9699Z" fill="black"/>
<path d="M67.73 47.97C68.32 48.33 69.0775 47.855 69 47.17C68.565 43.3525 65.585 40.255 61.72 39.915C57.855 39.575 54.3825 42.11 53.2925 45.795C53.0975 46.4575 53.76 47.055 54.4025 46.805C55.8075 46.2575 58.18 45.62 61.1975 45.885C64.215 46.15 66.44 47.1875 67.73 47.97Z" fill="black"/>
</g>
<defs>
<clipPath id="clip0_559_1081">
<rect width="100" height="100" fill="white"/>
</clipPath>
</defs>
</svg>
